<svg width="50" height="50" viewBox="0 0 50 50" fill="none" xmlns="http://www.w3.org/2000/svg">
<rect width="50" height="50" fill="white"/>
<path d="M9.66659 5.83333C7.54949 5.83333 5.83325 7.54957 5.83325 9.66667V19.25C5.83325 21.3671 7.54949 23.0833 9.66659 23.0833H19.2499C21.3671 23.0833 23.0833 21.3671 23.0833 19.25V9.66667C23.0833 7.54957 21.3671 5.83333 19.2499 5.83333H9.66659Z" fill="#A2B0FA"/>
<path d="M30.7501 5.83333C28.6329 5.83333 26.9167 7.54957 26.9167 9.66667V19.25C26.9167 21.3671 28.6329 23.0833 30.7501 23.0833H40.3334C42.4506 23.0833 44.1667 21.3671 44.1667 19.25V9.66667C44.1667 7.54957 42.4506 5.83333 40.3334 5.83333H30.7501Z" fill="#4E6BFF"/>
<path d="M5.83325 30.75C5.83325 28.6328 7.54949 26.9167 9.66659 26.9167H19.2499C21.3671 26.9167 23.0833 28.6328 23.0833 30.75V40.3333C23.0833 42.4505 21.3671 44.1667 19.2499 44.1667H9.66659C7.54949 44.1667 5.83325 42.4505 5.83325 40.3333V30.75Z" fill="#4E6BFF"/>
<path d="M30.7501 26.9167C28.6329 26.9167 26.9167 28.6328 26.9167 30.75V40.3333C26.9167 42.4505 28.6329 44.1667 30.7501 44.1667H40.3334C42.4506 44.1667 44.1667 42.4505 44.1667 40.3333V30.75C44.1667 28.6328 42.4506 26.9167 40.3334 26.9167H30.7501Z" fill="#4E6BFF"/>
</svg>
